# xmcd CD database file
#
# Track frame offsets:
#	150
#	14009
#	26809
#	40333
#	56407
#	67117
#	81435
#	99222
#	113554
#	123456
#	139404
#	152914
#	168208
#	181286
#	195340
#
# Disc length: 2799 seconds
#
# Revision: 0
# Processed by: cddbd v1.4PL0 Copyright (c) Steve Scherf et al.
# Submitted via: CDex 1.50beta9
#
DISCID=cb0aed0f
DTITLE=Hal Leonard - Easy Jazz Ensemble Series (Pak 17)
DYEAR=1900
DGENRE=Jazz
TTITLE0=Birdland
TTITLE1=Born to be wild
TTITLE2=Eli's comin'
TTITLE3=Here, there and everywhere
TTITLE4=How high is the moon
TTITLE5=Malaguena
TTITLE6=A night in Tunisia
TTITLE7=Peanut Vendor
TTITLE8=Shake, rattle and roll
TTITLE9=stompin' at the savoy
TTITLE10=A string of pearls
TTITLE11=Summertime
TTITLE12=Take the "A" train
TTITLE13=Watch what happens
TTITLE14=Yardbird suite
EXTD=
EXTT0=
EXTT1=
EXTT2=
EXTT3=
EXTT4=
EXTT5=
EXTT6=
EXTT7=
EXTT8=
EXTT9=
EXTT10=
EXTT11=
EXTT12=
EXTT13=
EXTT14=
PLAYORDER=
